<svg preserveAspectRatio="none" width="100%" height="100%" overflow="visible" style="display: block;" viewBox="0 0 1456 145.292" fill="none" xmlns="http://www.w3.org/2000/svg">
<g id="Group 90149">
<g id="Union" filter="url(#filter0_d_0_4)">
<path d="M1448 75V111H1444.02C1443.05 111.036 1442.09 111.149 1441.14 111.337C1438.7 112.003 1436.49 113.325 1434.74 115.159C1431.45 118.306 1429 122.205 1426.25 125.8C1424.74 127.968 1422.76 129.769 1420.46 131.07C1417.75 132.337 1414.69 132.629 1411.79 131.898C1402.07 129.82 1396.96 117.814 1386.54 117.898C1382.19 117.933 1378.72 120.371 1374.55 121.014C1364.61 122.552 1359.12 114.342 1350.82 111.751C1322.64 115.186 1311.72 129.254 1296.69 129.254C1276.27 129.254 1263.37 111.21 1234.44 111.005L1346.78 111.012C1346.71 111.008 1346.63 111.003 1346.55 111H109.466C109.385 111.003 109.305 111.008 109.225 111.013L233.182 111.005C204.253 111.21 191.35 129.254 170.931 129.254C154.489 129.254 142.962 112.407 108.356 111.085C98.1566 112.212 92.6132 122.738 81.4658 121.014C77.2988 120.371 73.8295 117.933 69.4785 117.898C59.0625 117.814 53.9494 129.82 44.2324 131.898C41.3337 132.629 38.2714 132.337 35.5635 131.07C33.261 129.769 31.2799 127.968 29.7656 125.8C27.0147 122.205 24.5654 118.306 21.2754 115.159C19.5309 113.325 17.318 112.003 14.876 111.337C13.9282 111.149 12.9665 111.036 12.001 111H8V75H1448ZM306.623 111C290.152 111 282.879 121.267 271.327 121.268C261.795 121.268 255.2 111.203 234.305 111.005L306.623 111ZM1233.32 111.005C1212.42 111.203 1205.83 121.268 1196.3 121.268C1184.75 121.267 1177.47 111 1161 111L1233.32 111.005ZM234.305 111.005H233.182C233.347 111.004 233.512 111 233.679 111C233.889 111 234.098 111.003 234.305 111.005ZM1234.44 111.005H1233.32C1233.53 111.003 1233.74 111 1233.95 111C1234.11 111 1234.28 111.004 1234.44 111.005Z" fill="var(--fill-0, #FFBC0D)"/>
</g>
<rect id="Rectangle 5" x="8" width="1440" height="112" fill="var(--fill-0, #FFBC0D)"/>
</g>
<defs>
<filter id="filter0_d_0_4" x="0" y="72" width="1456" height="73.2922" filterUnits="userSpaceOnUse" color-interpolation-filters="sRGB">
<feFlood flood-opacity="0" result="BackgroundImageFix"/>
<feColorMatrix in="SourceAlpha" type="matrix" values="0 0 0 0 0 0 0 0 0 0 0 0 0 0 0 0 0 0 127 0" result="hardAlpha"/>
<feOffset dy="5"/>
<feGaussianBlur stdDeviation="4"/>
<feComposite in2="hardAlpha" operator="out"/>
<feColorMatrix type="matrix" values="0 0 0 0 0.83667 0 0 0 0 0.719075 0 0 0 0 0.411924 0 0 0 0.65 0"/>
<feBlend mode="normal" in2="BackgroundImageFix" result="effect1_dropShadow_0_4"/>
<feBlend mode="normal" in="SourceGraphic" in2="effect1_dropShadow_0_4" result="shape"/>
</filter>
</defs>
</svg>
